<svg xmlns="http://www.w3.org/2000/svg" viewBox="0 0 160 90" width="160" height="90" role="img">
<title>Eight fibres in parallel, 50 Gb/s on each.</title>
<defs>
<linearGradient id="bg" x1="0" y1="0" x2="0" y2="1"><stop offset="0%" stop-color="#101b2b"/><stop offset="100%" stop-color="#070b14"/></linearGradient>
<linearGradient id="sheen" x1="0" y1="0" x2="0" y2="1"><stop offset="0%" stop-color="#ffffff" stop-opacity="0.16"/><stop offset="45%" stop-color="#ffffff" stop-opacity="0.02"/><stop offset="100%" stop-color="#000000" stop-opacity="0.22"/></linearGradient>
</defs>
<rect width="160" height="90" fill="url(#bg)"/>
<rect x="0" y="49.5" width="108" height="17" fill="#1d2a2a"/>
<rect x="26" y="50.5" width="82" height="15.0" fill="#d9c48a"/>
<path d="M26 50.5 a 3 7.5 0 0 0 0 15.0" fill="#a89660" opacity="0.85"/>
<rect x="44" y="51.9" width="64" height="12.2" fill="#244553"/>
<path d="M44 51.9 a 3 6.1 0 0 0 0 12.2" fill="#152e39" opacity="0.85"/>
<rect x="62" y="53.1" width="46" height="9.8" fill="#376a7d"/>
<rect x="0" y="49.5" width="108" height="17" fill="url(#sheen)"/>
<g transform="translate(132.00,58.00)"><rect x="-25.50" y="-6.80" width="19.55" height="13.60" rx="1.36" fill="#2f3e52" stroke="#1a2432" stroke-width="0.85"/><circle cx="-10.54" cy="-4.08" r="0.60" fill="#8fd8e8"/><circle cx="-10.54" cy="-2.38" r="0.60" fill="#8fd8e8"/><circle cx="-10.54" cy="-0.68" r="0.60" fill="#8fd8e8"/><circle cx="-10.54" cy="1.02" r="0.60" fill="#8fd8e8"/><circle cx="-10.54" cy="2.72" r="0.60" fill="#8fd8e8"/><circle cx="-10.54" cy="4.42" r="0.60" fill="#8fd8e8"/><rect x="-6.80" y="-2.72" width="8.84" height="5.44" rx="0.68" fill="#e8eef5" opacity="0.85"/></g>
<rect x="86" y="51.0" width="16" height="14" rx="2" fill="#2f3e52" stroke="#f5d06f" stroke-width="0.9"/>
<rect x="84.0" y="54.0" width="2" height="1.4" fill="#f5d06f"/>
<rect x="102.0" y="54.0" width="2" height="1.4" fill="#f5d06f"/>
<rect x="84.0" y="57.4" width="2" height="1.4" fill="#f5d06f"/>
<rect x="102.0" y="57.4" width="2" height="1.4" fill="#f5d06f"/>
<rect x="84.0" y="60.8" width="2" height="1.4" fill="#f5d06f"/>
<rect x="102.0" y="60.8" width="2" height="1.4" fill="#f5d06f"/>
<circle cx="94" cy="58.0" r="2.6" fill="#f5d06f" opacity="0.5"/>
<circle cx="30" cy="26" r="22.5" fill="#070b14" stroke="#1e2a3c" stroke-width="1"/>
    <circle cx="30.00" cy="26.00" r="20.00" fill="#1d2a2a" stroke="#101a1a" stroke-width="0.60"/>
    <circle cx="30.00" cy="26.00" r="17.60" fill="#d9c48a" stroke="#a89660" stroke-width="0.60"/>
    <circle cx="30.00" cy="9.81" r="0.52" fill="#f0e0b0" opacity="0.55"/>
    <circle cx="35.00" cy="10.60" r="0.52" fill="#f0e0b0" opacity="0.55"/>
    <circle cx="39.52" cy="12.90" r="0.52" fill="#f0e0b0" opacity="0.55"/>
    <circle cx="43.10" cy="16.48" r="0.52" fill="#f0e0b0" opacity="0.55"/>
    <circle cx="45.40" cy="21.00" r="0.52" fill="#f0e0b0" opacity="0.55"/>
    <circle cx="46.19" cy="26.00" r="0.52" fill="#f0e0b0" opacity="0.55"/>
    <circle cx="45.40" cy="31.00" r="0.52" fill="#f0e0b0" opacity="0.55"/>
    <circle cx="43.10" cy="35.52" r="0.52" fill="#f0e0b0" opacity="0.55"/>
    <circle cx="39.52" cy="39.10" r="0.52" fill="#f0e0b0" opacity="0.55"/>
    <circle cx="35.00" cy="41.40" r="0.52" fill="#f0e0b0" opacity="0.55"/>
    <circle cx="30.00" cy="42.19" r="0.52" fill="#f0e0b0" opacity="0.55"/>
    <circle cx="25.00" cy="41.40" r="0.52" fill="#f0e0b0" opacity="0.55"/>
    <circle cx="20.48" cy="39.10" r="0.52" fill="#f0e0b0" opacity="0.55"/>
    <circle cx="16.90" cy="35.52" r="0.52" fill="#f0e0b0" opacity="0.55"/>
    <circle cx="14.60" cy="31.00" r="0.52" fill="#f0e0b0" opacity="0.55"/>
    <circle cx="13.81" cy="26.00" r="0.52" fill="#f0e0b0" opacity="0.55"/>
    <circle cx="14.60" cy="21.00" r="0.52" fill="#f0e0b0" opacity="0.55"/>
    <circle cx="16.90" cy="16.48" r="0.52" fill="#f0e0b0" opacity="0.55"/>
    <circle cx="20.48" cy="12.90" r="0.52" fill="#f0e0b0" opacity="0.55"/>
    <circle cx="25.00" cy="10.60" r="0.52" fill="#f0e0b0" opacity="0.55"/>
    <circle cx="30.00" cy="26.00" r="14.40" fill="#244553" stroke="#152e39" stroke-width="0.60"/>
    <circle cx="23.20" cy="26.00" r="1.00" fill="#8fd8e8" stroke="#4f9db0" stroke-width="0.5"/>
    <circle cx="25.14" cy="26.00" r="1.00" fill="#8fd8e8" stroke="#4f9db0" stroke-width="0.5"/>
    <circle cx="27.09" cy="26.00" r="1.00" fill="#8fd8e8" stroke="#4f9db0" stroke-width="0.5"/>
    <circle cx="29.03" cy="26.00" r="1.00" fill="#8fd8e8" stroke="#4f9db0" stroke-width="0.5"/>
    <circle cx="30.97" cy="26.00" r="1.00" fill="#8fd8e8" stroke="#4f9db0" stroke-width="0.5"/>
    <circle cx="32.91" cy="26.00" r="1.00" fill="#8fd8e8" stroke="#4f9db0" stroke-width="0.5"/>
    <circle cx="34.86" cy="26.00" r="1.00" fill="#8fd8e8" stroke="#4f9db0" stroke-width="0.5"/>
    <circle cx="36.80" cy="26.00" r="1.00" fill="#8fd8e8" stroke="#4f9db0" stroke-width="0.5"/>
<circle cx="30" cy="26" r="20" fill="none" stroke="#000" stroke-opacity="0.35" stroke-width="0.8"/>
<path d="M53 32 L66 46" stroke="#3fbfd4" stroke-width="0.9" opacity="0.55"/>
<text x="155" y="12" text-anchor="end" font-family="ui-sans-serif,system-ui,sans-serif" font-size="7.5" font-weight="700" fill="#93a1b5" letter-spacing="0.6">4 LAYERS</text>
</svg>