<svg xmlns="http://www.w3.org/2000/svg" viewBox="0 0 160 90" width="160" height="90" role="img">
<title>Cheapernet: thin coax, BNC twists, and one loose end killing the whole office.</title>
<defs>
<linearGradient id="bg" x1="0" y1="0" x2="0" y2="1"><stop offset="0%" stop-color="#101b2b"/><stop offset="100%" stop-color="#070b14"/></linearGradient>
<linearGradient id="sheen" x1="0" y1="0" x2="0" y2="1"><stop offset="0%" stop-color="#ffffff" stop-opacity="0.16"/><stop offset="45%" stop-color="#ffffff" stop-opacity="0.02"/><stop offset="100%" stop-color="#000000" stop-opacity="0.22"/></linearGradient>
</defs>
<rect width="160" height="90" fill="url(#bg)"/>
<rect x="0" y="49.5" width="108" height="17" fill="#1b2531"/>
<rect x="26" y="50.9" width="82" height="14.3" fill="#8b98a8"/>
<path d="M26 50.9 a 3 7.1 0 0 0 0 14.3" fill="#5f6b79" opacity="0.85"/>
<rect x="44" y="52.2" width="64" height="11.6" fill="#22303f"/>
<path d="M44 52.2 a 3 5.8 0 0 0 0 11.6" fill="#14202c" opacity="0.85"/>
<rect x="62" y="55.6" width="46" height="4.8" fill="#b87333"/>
<path d="M62 55.6 a 3 2.4 0 0 0 0 4.8" fill="#8a5524" opacity="0.85"/>
<rect x="80" y="56.4" width="28" height="3.3" fill="#e8913a"/>
<rect x="0" y="49.5" width="108" height="17" fill="url(#sheen)"/>
<g transform="translate(132.00,58.00)"><rect x="-22.95" y="-5.44" width="17.00" height="10.88" rx="1.02" fill="#9aa7b4" stroke="#5f6b79" stroke-width="0.85"/><rect x="-7.14" y="-0.85" width="10.20" height="1.70" fill="#b87333"/></g>
<rect x="86" y="51.0" width="16" height="14" rx="2" fill="#2f3e52" stroke="#f5d06f" stroke-width="0.9"/>
<rect x="84.0" y="54.0" width="2" height="1.4" fill="#f5d06f"/>
<rect x="102.0" y="54.0" width="2" height="1.4" fill="#f5d06f"/>
<rect x="84.0" y="57.4" width="2" height="1.4" fill="#f5d06f"/>
<rect x="102.0" y="57.4" width="2" height="1.4" fill="#f5d06f"/>
<rect x="84.0" y="60.8" width="2" height="1.4" fill="#f5d06f"/>
<rect x="102.0" y="60.8" width="2" height="1.4" fill="#f5d06f"/>
<circle cx="94" cy="58.0" r="2.6" fill="#f5d06f" opacity="0.5"/>
<circle cx="30" cy="26" r="22.5" fill="#070b14" stroke="#1e2a3c" stroke-width="1"/>
    <circle cx="30.00" cy="26.00" r="20.00" fill="#1b2531" stroke="#0e1620" stroke-width="0.60"/>
    <circle cx="30.00" cy="26.00" r="16.80" fill="#8b98a8" stroke="#5f6b79" stroke-width="0.60"/>
    <circle cx="30.00" cy="10.38" r="0.60" fill="#b6c2cf" opacity="0.9"/>
    <circle cx="34.04" cy="10.91" r="0.60" fill="#b6c2cf" opacity="0.9"/>
    <circle cx="37.81" cy="12.47" r="0.60" fill="#b6c2cf" opacity="0.9"/>
    <circle cx="41.05" cy="14.95" r="0.60" fill="#b6c2cf" opacity="0.9"/>
    <circle cx="43.53" cy="18.19" r="0.60" fill="#b6c2cf" opacity="0.9"/>
    <circle cx="45.09" cy="21.96" r="0.60" fill="#b6c2cf" opacity="0.9"/>
    <circle cx="45.62" cy="26.00" r="0.60" fill="#b6c2cf" opacity="0.9"/>
    <circle cx="45.09" cy="30.04" r="0.60" fill="#b6c2cf" opacity="0.9"/>
    <circle cx="43.53" cy="33.81" r="0.60" fill="#b6c2cf" opacity="0.9"/>
    <circle cx="41.05" cy="37.05" r="0.60" fill="#b6c2cf" opacity="0.9"/>
    <circle cx="37.81" cy="39.53" r="0.60" fill="#b6c2cf" opacity="0.9"/>
    <circle cx="34.04" cy="41.09" r="0.60" fill="#b6c2cf" opacity="0.9"/>
    <circle cx="30.00" cy="41.62" r="0.60" fill="#b6c2cf" opacity="0.9"/>
    <circle cx="25.96" cy="41.09" r="0.60" fill="#b6c2cf" opacity="0.9"/>
    <circle cx="22.19" cy="39.53" r="0.60" fill="#b6c2cf" opacity="0.9"/>
    <circle cx="18.95" cy="37.05" r="0.60" fill="#b6c2cf" opacity="0.9"/>
    <circle cx="16.47" cy="33.81" r="0.60" fill="#b6c2cf" opacity="0.9"/>
    <circle cx="14.91" cy="30.04" r="0.60" fill="#b6c2cf" opacity="0.9"/>
    <circle cx="14.38" cy="26.00" r="0.60" fill="#b6c2cf" opacity="0.9"/>
    <circle cx="14.91" cy="21.96" r="0.60" fill="#b6c2cf" opacity="0.9"/>
    <circle cx="16.47" cy="18.19" r="0.60" fill="#b6c2cf" opacity="0.9"/>
    <circle cx="18.95" cy="14.95" r="0.60" fill="#b6c2cf" opacity="0.9"/>
    <circle cx="22.19" cy="12.47" r="0.60" fill="#b6c2cf" opacity="0.9"/>
    <circle cx="25.96" cy="10.91" r="0.60" fill="#b6c2cf" opacity="0.9"/>
    <circle cx="30.00" cy="26.00" r="13.60" fill="#22303f" stroke="#14202c" stroke-width="0.60"/>
    <circle cx="30.00" cy="26.00" r="4.80" fill="#b87333" stroke="#8a5524" stroke-width="0.60"/>
<circle cx="30" cy="26" r="20" fill="none" stroke="#000" stroke-opacity="0.35" stroke-width="0.8"/>
<path d="M53 32 L66 46" stroke="#3fbfd4" stroke-width="0.9" opacity="0.55"/>
<text x="155" y="12" text-anchor="end" font-family="ui-sans-serif,system-ui,sans-serif" font-size="7.5" font-weight="700" fill="#93a1b5" letter-spacing="0.6">4 LAYERS</text>
</svg>