<svg xmlns="http://www.w3.org/2000/svg" viewBox="0 0 160 90" width="160" height="90" role="img">
<title>One standard socket for any building, any vendor.</title>
<defs>
<linearGradient id="bg" x1="0" y1="0" x2="0" y2="1"><stop offset="0%" stop-color="#101b2b"/><stop offset="100%" stop-color="#070b14"/></linearGradient>
<linearGradient id="sheen" x1="0" y1="0" x2="0" y2="1"><stop offset="0%" stop-color="#ffffff" stop-opacity="0.16"/><stop offset="45%" stop-color="#ffffff" stop-opacity="0.02"/><stop offset="100%" stop-color="#000000" stop-opacity="0.22"/></linearGradient>
</defs>
<rect width="160" height="90" fill="url(#bg)"/>
<rect x="0" y="49.5" width="108" height="17" fill="#1b2531"/>
<rect x="26" y="50.7" width="82" height="14.6" fill="#d9c48a"/>
<path d="M26 50.7 a 3 7.3 0 0 0 0 14.6" fill="#a89660" opacity="0.85"/>
<rect x="44" y="52.2" width="64" height="11.7" fill="#f0e0b0"/>
<rect x="0" y="49.5" width="108" height="17" fill="url(#sheen)"/>
<g transform="translate(132.00,58.00)"><path d="M-25.50 -7.82 h25.50 v15.64 h-25.50 z" fill="#c9d4de" opacity="0.92" stroke="#7d8894" stroke-width="0.85"/><path d="M-16.15 7.82 v5.78 h7.14 v-5.78 z" fill="#c9d4de" stroke="#7d8894" stroke-width="0.85"/><rect x="-23.46" y="-6.80" width="1.19" height="7.82" fill="#f5d06f"/><rect x="-20.74" y="-6.80" width="1.19" height="7.82" fill="#f5d06f"/><rect x="-18.02" y="-6.80" width="1.19" height="7.82" fill="#f5d06f"/><rect x="-15.30" y="-6.80" width="1.19" height="7.82" fill="#f5d06f"/><rect x="-12.58" y="-6.80" width="1.19" height="7.82" fill="#f5d06f"/><rect x="-9.86" y="-6.80" width="1.19" height="7.82" fill="#f5d06f"/><rect x="-7.14" y="-6.80" width="1.19" height="7.82" fill="#f5d06f"/><rect x="-4.42" y="-6.80" width="1.19" height="7.82" fill="#f5d06f"/></g>
<rect x="86" y="51.0" width="16" height="14" rx="2" fill="#2f3e52" stroke="#f5d06f" stroke-width="0.9"/>
<rect x="84.0" y="54.0" width="2" height="1.4" fill="#f5d06f"/>
<rect x="102.0" y="54.0" width="2" height="1.4" fill="#f5d06f"/>
<rect x="84.0" y="57.4" width="2" height="1.4" fill="#f5d06f"/>
<rect x="102.0" y="57.4" width="2" height="1.4" fill="#f5d06f"/>
<rect x="84.0" y="60.8" width="2" height="1.4" fill="#f5d06f"/>
<rect x="102.0" y="60.8" width="2" height="1.4" fill="#f5d06f"/>
<circle cx="94" cy="58.0" r="2.6" fill="#f5d06f" opacity="0.5"/>
<circle cx="30" cy="26" r="22.5" fill="#070b14" stroke="#1e2a3c" stroke-width="1"/>
    <circle cx="30.00" cy="26.00" r="20.00" fill="#1b2531" stroke="#0e1620" stroke-width="0.60"/>
    <circle cx="30.00" cy="26.00" r="17.20" fill="#d9c48a" stroke="#a89660" stroke-width="0.60"/>
    <circle cx="30.00" cy="10.18" r="0.52" fill="#f0e0b0" opacity="0.55"/>
    <circle cx="34.89" cy="10.95" r="0.52" fill="#f0e0b0" opacity="0.55"/>
    <circle cx="39.30" cy="13.20" r="0.52" fill="#f0e0b0" opacity="0.55"/>
    <circle cx="42.80" cy="16.70" r="0.52" fill="#f0e0b0" opacity="0.55"/>
    <circle cx="45.05" cy="21.11" r="0.52" fill="#f0e0b0" opacity="0.55"/>
    <circle cx="45.82" cy="26.00" r="0.52" fill="#f0e0b0" opacity="0.55"/>
    <circle cx="45.05" cy="30.89" r="0.52" fill="#f0e0b0" opacity="0.55"/>
    <circle cx="42.80" cy="35.30" r="0.52" fill="#f0e0b0" opacity="0.55"/>
    <circle cx="39.30" cy="38.80" r="0.52" fill="#f0e0b0" opacity="0.55"/>
    <circle cx="34.89" cy="41.05" r="0.52" fill="#f0e0b0" opacity="0.55"/>
    <circle cx="30.00" cy="41.82" r="0.52" fill="#f0e0b0" opacity="0.55"/>
    <circle cx="25.11" cy="41.05" r="0.52" fill="#f0e0b0" opacity="0.55"/>
    <circle cx="20.70" cy="38.80" r="0.52" fill="#f0e0b0" opacity="0.55"/>
    <circle cx="17.20" cy="35.30" r="0.52" fill="#f0e0b0" opacity="0.55"/>
    <circle cx="14.95" cy="30.89" r="0.52" fill="#f0e0b0" opacity="0.55"/>
    <circle cx="14.18" cy="26.00" r="0.52" fill="#f0e0b0" opacity="0.55"/>
    <circle cx="14.95" cy="21.11" r="0.52" fill="#f0e0b0" opacity="0.55"/>
    <circle cx="17.20" cy="16.70" r="0.52" fill="#f0e0b0" opacity="0.55"/>
    <circle cx="20.70" cy="13.20" r="0.52" fill="#f0e0b0" opacity="0.55"/>
    <circle cx="25.11" cy="10.95" r="0.52" fill="#f0e0b0" opacity="0.55"/>
    <circle cx="35.17" cy="18.93" r="1.98" fill="#3fbfd4" stroke="#0e1620" stroke-width="0.6"/>
    <circle cx="38.97" cy="18.93" r="1.98" fill="#e8eef5" stroke="#0e1620" stroke-width="0.6"/>
    <circle cx="35.17" cy="18.93" r="0.91" fill="#b87333"/>
    <circle cx="38.97" cy="18.93" r="0.91" fill="#b87333"/>
    <circle cx="35.17" cy="33.07" r="1.98" fill="#e8913a" stroke="#0e1620" stroke-width="0.6"/>
    <circle cx="38.97" cy="33.07" r="1.98" fill="#e8eef5" stroke="#0e1620" stroke-width="0.6"/>
    <circle cx="35.17" cy="33.07" r="0.91" fill="#b87333"/>
    <circle cx="38.97" cy="33.07" r="0.91" fill="#b87333"/>
    <circle cx="21.03" cy="33.07" r="1.98" fill="#46c98b" stroke="#0e1620" stroke-width="0.6"/>
    <circle cx="24.83" cy="33.07" r="1.98" fill="#e8eef5" stroke="#0e1620" stroke-width="0.6"/>
    <circle cx="21.03" cy="33.07" r="0.91" fill="#b87333"/>
    <circle cx="24.83" cy="33.07" r="0.91" fill="#b87333"/>
    <circle cx="21.03" cy="18.93" r="1.98" fill="#ef5f5f" stroke="#0e1620" stroke-width="0.6"/>
    <circle cx="24.83" cy="18.93" r="1.98" fill="#e8eef5" stroke="#0e1620" stroke-width="0.6"/>
    <circle cx="21.03" cy="18.93" r="0.91" fill="#b87333"/>
    <circle cx="24.83" cy="18.93" r="0.91" fill="#b87333"/>
<circle cx="30" cy="26" r="20" fill="none" stroke="#000" stroke-opacity="0.35" stroke-width="0.8"/>
<path d="M53 32 L66 46" stroke="#3fbfd4" stroke-width="0.9" opacity="0.55"/>
<text x="155" y="12" text-anchor="end" font-family="ui-sans-serif,system-ui,sans-serif" font-size="7.5" font-weight="700" fill="#93a1b5" letter-spacing="0.6">3 LAYERS</text>
</svg>